<mxfile host="app.diagrams.net" modified="2023-10-08T21:26:13.463Z" agent="Mozilla/5.0 (Macintosh; Intel Mac OS X 10_15_7) AppleWebKit/537.36 (KHTML, like Gecko) Chrome/117.0.0.0 Safari/537.36" etag="V7U9CpBuVTbPO8LdY9HZ" version="22.0.0" type="github">
  <diagram id="_W9OsfXQESNlso85iVsK" name="Page-1">
    <mxGraphModel dx="-220" dy="4272" grid="1" gridSize="10" guides="1" tooltips="1" connect="1" arrows="1" fold="1" page="1" pageScale="1" pageWidth="827" pageHeight="1169" math="0" shadow="0">
      <root>
        <mxCell id="0" />
        <mxCell id="1" parent="0" />
        <mxCell id="onG2acxlvetChBkqUA75-144" value="" style="rounded=0;whiteSpace=wrap;html=1;labelBackgroundColor=none;fontSize=11;fontColor=#FFFFFF;strokeColor=#000000;strokeWidth=1;fillColor=#CCE5FF;verticalAlign=top;" parent="1" vertex="1">
          <mxGeometry x="3784.5" y="-2062.5" width="150" height="81" as="geometry" />
        </mxCell>
        <mxCell id="onG2acxlvetChBkqUA75-145" value="" style="rounded=0;whiteSpace=wrap;html=1;labelBackgroundColor=none;fontSize=11;fontColor=#000000;strokeColor=#000000;strokeWidth=1;fillColor=#FFFFCC;verticalAlign=top;" parent="1" vertex="1">
          <mxGeometry x="2834.5" y="-2062.5" width="950" height="81" as="geometry" />
        </mxCell>
        <mxCell id="onG2acxlvetChBkqUA75-156" style="edgeStyle=orthogonalEdgeStyle;curved=1;rounded=0;orthogonalLoop=1;jettySize=auto;html=1;entryX=0;entryY=0.5;entryDx=0;entryDy=0;fontFamily=Verdana;fontSize=11;fontColor=default;strokeColor=#000000;strokeWidth=1;align=left;" parent="1" source="onG2acxlvetChBkqUA75-162" target="onG2acxlvetChBkqUA75-163" edge="1">
          <mxGeometry relative="1" as="geometry" />
        </mxCell>
        <mxCell id="onG2acxlvetChBkqUA75-157" style="edgeStyle=orthogonalEdgeStyle;curved=1;rounded=0;orthogonalLoop=1;jettySize=auto;html=1;exitX=1;exitY=0.5;exitDx=0;exitDy=0;entryX=0;entryY=0.5;entryDx=0;entryDy=0;fontFamily=Verdana;fontSize=11;fontColor=#000000;strokeColor=#000000;strokeWidth=1;" parent="1" source="onG2acxlvetChBkqUA75-162" target="onG2acxlvetChBkqUA75-173" edge="1">
          <mxGeometry relative="1" as="geometry" />
        </mxCell>
        <mxCell id="onG2acxlvetChBkqUA75-158" style="edgeStyle=orthogonalEdgeStyle;curved=1;rounded=0;orthogonalLoop=1;jettySize=auto;html=1;entryX=0;entryY=0.5;entryDx=0;entryDy=0;fontSize=11;" parent="1" source="onG2acxlvetChBkqUA75-162" target="onG2acxlvetChBkqUA75-180" edge="1">
          <mxGeometry relative="1" as="geometry" />
        </mxCell>
        <mxCell id="onG2acxlvetChBkqUA75-159" style="edgeStyle=orthogonalEdgeStyle;curved=1;rounded=0;orthogonalLoop=1;jettySize=auto;html=1;entryX=0;entryY=0.5;entryDx=0;entryDy=0;fontSize=11;" parent="1" source="onG2acxlvetChBkqUA75-162" target="onG2acxlvetChBkqUA75-182" edge="1">
          <mxGeometry relative="1" as="geometry" />
        </mxCell>
        <mxCell id="onG2acxlvetChBkqUA75-160" style="edgeStyle=orthogonalEdgeStyle;curved=1;rounded=0;orthogonalLoop=1;jettySize=auto;html=1;entryX=0;entryY=0.5;entryDx=0;entryDy=0;fontSize=11;fontColor=#FF0000;" parent="1" source="onG2acxlvetChBkqUA75-162" target="onG2acxlvetChBkqUA75-204" edge="1">
          <mxGeometry relative="1" as="geometry" />
        </mxCell>
        <mxCell id="onG2acxlvetChBkqUA75-161" style="edgeStyle=orthogonalEdgeStyle;curved=1;rounded=0;orthogonalLoop=1;jettySize=auto;html=1;entryX=0;entryY=0.5;entryDx=0;entryDy=0;fontSize=11;fontColor=#000000;" parent="1" source="onG2acxlvetChBkqUA75-162" target="onG2acxlvetChBkqUA75-284" edge="1">
          <mxGeometry relative="1" as="geometry" />
        </mxCell>
        <mxCell id="onG2acxlvetChBkqUA75-162" value="基础语法" style="rounded=0;whiteSpace=wrap;html=1;fillColor=#FFFFFF;fontFamily=Verdana;align=center;fontSize=11;" parent="1" vertex="1">
          <mxGeometry x="2699" y="-2711" width="70" height="40" as="geometry" />
        </mxCell>
        <mxCell id="onG2acxlvetChBkqUA75-163" value="&lt;font style=&quot;font-size: 11px;&quot;&gt;1.函数抽象了汇编的参数传递, 代码片段, 返回值&lt;br style=&quot;font-size: 11px;&quot;&gt;2.使用基础数据类型, 数组, 结构体来封装对内存单元的操作&lt;br style=&quot;font-size: 11px;&quot;&gt;3.函数传参优先使用寄存器, 多余的参数使用栈来传递&lt;br style=&quot;font-size: 11px;&quot;&gt;&lt;/font&gt;" style="text;html=1;strokeColor=none;fillColor=none;align=left;verticalAlign=middle;whiteSpace=wrap;rounded=0;fontFamily=Verdana;fontSize=11;fontColor=#000000;" parent="1" vertex="1">
          <mxGeometry x="2893.5" y="-2796" width="355.5" height="63" as="geometry" />
        </mxCell>
        <mxCell id="onG2acxlvetChBkqUA75-164" value="" style="edgeStyle=orthogonalEdgeStyle;curved=1;rounded=0;orthogonalLoop=1;jettySize=auto;html=1;fontFamily=Verdana;fontSize=11;fontColor=#000000;strokeColor=#000000;strokeWidth=1;align=left;" parent="1" source="onG2acxlvetChBkqUA75-165" target="onG2acxlvetChBkqUA75-166" edge="1">
          <mxGeometry relative="1" as="geometry" />
        </mxCell>
        <mxCell id="onG2acxlvetChBkqUA75-165" value="编译后的汇编代码" style="rounded=0;whiteSpace=wrap;html=1;fillColor=#FFFFFF;fontFamily=Verdana;align=center;fontSize=11;" parent="1" vertex="1">
          <mxGeometry x="2691" y="-1902" width="120" height="40" as="geometry" />
        </mxCell>
        <mxCell id="onG2acxlvetChBkqUA75-166" value=".globl表示全局符号 (符号名+类型) 包含: 变量和函数&lt;br style=&quot;font-size: 11px;&quot;&gt;.section描述节信息: rodata&lt;br style=&quot;font-size: 11px;&quot;&gt;.data表示数据段&lt;br style=&quot;font-size: 11px;&quot;&gt;.text表示代码段" style="text;html=1;strokeColor=none;fillColor=none;align=left;verticalAlign=middle;whiteSpace=wrap;rounded=0;fontFamily=Verdana;fontSize=11;fontColor=#000000;" parent="1" vertex="1">
          <mxGeometry x="2851" y="-1909.5" width="340" height="55" as="geometry" />
        </mxCell>
        <mxCell id="onG2acxlvetChBkqUA75-167" value="不同的C文件如何关联在一起&lt;br style=&quot;font-size: 11px;&quot;&gt;通过gcc将其他文件进行编译, 得到.text .data即可, 合并之后统一进行处理。 所以只需要定义数据段和代码段即可" style="text;html=1;strokeColor=none;fillColor=none;align=left;verticalAlign=middle;whiteSpace=wrap;rounded=0;fontFamily=Verdana;fontSize=11;fontColor=#000000;" parent="1" vertex="1">
          <mxGeometry x="2594.75" y="-3100" width="360" height="60" as="geometry" />
        </mxCell>
        <mxCell id="onG2acxlvetChBkqUA75-168" value="C语言中, 所有数据都是共享的吗? 函数呢? 能不能让某个函数或者数据, 只在当前的.c文件中可见。&lt;br style=&quot;font-size: 11px;&quot;&gt;原理: 通过.globl标识指令, 将当前文件中的数据和函数导出, 才能让其他文件看到并引用当前文件中定义的数据和函数&lt;br style=&quot;font-size: 11px;&quot;&gt;既然C是抽象了汇编, 那么C语言如何屏蔽.globl? 定义关键字: static, 让函数和数据local化&amp;nbsp;&lt;br style=&quot;font-size: 11px;&quot;&gt;&lt;br style=&quot;font-size: 11px;&quot;&gt;&lt;br style=&quot;font-size: 11px;&quot;&gt;当我们在一个c文件中依赖到其他c文件定义的数据时, 需要使用extern关键字告诉编译器, 这个值保存在外部&lt;br style=&quot;font-size: 11px;&quot;&gt;我要在指令中使用这个数据, 那么编译c代码生成指令时, 我就必须要知道这个数据类型, 而此时我们要去其他文件中找这个数据, 需要的映射就是 名字一样 &amp;amp; 类型一样&amp;nbsp;&lt;br style=&quot;font-size: 11px;&quot;&gt;----&amp;gt; 问题: 如果我定义了两个同名同类型的数据, 会发生什么? 经测试, 会报错multiple definition" style="text;html=1;strokeColor=none;fillColor=none;align=left;verticalAlign=middle;whiteSpace=wrap;rounded=0;fontFamily=Verdana;fontSize=11;fontColor=#000000;" parent="1" vertex="1">
          <mxGeometry x="2595.75" y="-3020" width="650.5" height="140.31" as="geometry" />
        </mxCell>
        <mxCell id="onG2acxlvetChBkqUA75-169" value="&lt;span style=&quot;color: rgb(0, 0, 0); font-size: 11px; font-style: normal; font-variant-ligatures: normal; font-variant-caps: normal; font-weight: 400; letter-spacing: normal; orphans: 2; text-indent: 0px; text-transform: none; widows: 2; word-spacing: 0px; -webkit-text-stroke-width: 0px; background-color: rgb(248, 249, 250); text-decoration-thickness: initial; text-decoration-style: initial; text-decoration-color: initial; float: none; display: inline !important;&quot;&gt;指针:使用*p 抽象汇编代码的 类似(rdx) 寄存器操作; 使用 &amp;amp; 抽象汇编代码的lea取地址操作&lt;br style=&quot;font-size: 11px;&quot;&gt;指针与数组操作&lt;br style=&quot;font-size: 11px;&quot;&gt;&lt;/span&gt;" style="text;html=1;strokeColor=none;fillColor=none;align=left;verticalAlign=middle;whiteSpace=wrap;rounded=0;fontFamily=Verdana;fontSize=11;fontColor=#FF0000;" parent="1" vertex="1">
          <mxGeometry x="3009.25" y="-2440" width="540" height="50" as="geometry" />
        </mxCell>
        <mxCell id="onG2acxlvetChBkqUA75-170" value="struct Stu {&lt;br style=&quot;font-size: 11px;&quot;&gt;int age;&lt;br style=&quot;font-size: 11px;&quot;&gt;char name[4]; // 当声明数组保存字符串时, 这里分配空间将在汇编代码的栈上分配&lt;br style=&quot;font-size: 11px;&quot;&gt;}&lt;br style=&quot;font-size: 11px;&quot;&gt;&lt;br style=&quot;font-size: 11px;&quot;&gt;struct Stu {&lt;br style=&quot;font-size: 11px;&quot;&gt;int age;&lt;br style=&quot;font-size: 11px;&quot;&gt;char *name; // 当声明指针保存字符串时, 字符串保存在rodata中&lt;br style=&quot;font-size: 11px;&quot;&gt;}" style="text;html=1;strokeColor=none;fillColor=none;align=left;verticalAlign=middle;whiteSpace=wrap;rounded=0;fontFamily=Verdana;fontSize=11;fontColor=#000000;" parent="1" vertex="1">
          <mxGeometry x="3280" y="-2840" width="429" height="115" as="geometry" />
        </mxCell>
        <mxCell id="onG2acxlvetChBkqUA75-171" value="通过汇编推理C语言" style="text;html=1;strokeColor=none;fillColor=none;align=left;verticalAlign=middle;whiteSpace=wrap;rounded=0;fontFamily=Verdana;fontSize=11;fontColor=#FF0000;fontStyle=1" parent="1" vertex="1">
          <mxGeometry x="2542.75" y="-2733" width="107.25" height="41" as="geometry" />
        </mxCell>
        <mxCell id="onG2acxlvetChBkqUA75-172" value="" style="edgeStyle=orthogonalEdgeStyle;curved=1;rounded=0;orthogonalLoop=1;jettySize=auto;html=1;fontFamily=Verdana;fontSize=11;fontColor=#000000;strokeColor=#000000;strokeWidth=1;" parent="1" source="onG2acxlvetChBkqUA75-173" target="onG2acxlvetChBkqUA75-175" edge="1">
          <mxGeometry relative="1" as="geometry" />
        </mxCell>
        <mxCell id="onG2acxlvetChBkqUA75-173" value="sizeof" style="rounded=0;whiteSpace=wrap;html=1;fillColor=#FFFFFF;fontFamily=Verdana;align=center;fontSize=11;" parent="1" vertex="1">
          <mxGeometry x="2894.5" y="-2679.94" width="65.5" height="25.5" as="geometry" />
        </mxCell>
        <mxCell id="onG2acxlvetChBkqUA75-174" value="" style="edgeStyle=orthogonalEdgeStyle;curved=1;rounded=0;orthogonalLoop=1;jettySize=auto;html=1;fontFamily=Verdana;fontSize=11;fontColor=#000000;strokeColor=#000000;strokeWidth=1;" parent="1" source="onG2acxlvetChBkqUA75-175" target="onG2acxlvetChBkqUA75-176" edge="1">
          <mxGeometry relative="1" as="geometry" />
        </mxCell>
        <mxCell id="onG2acxlvetChBkqUA75-175" value="&lt;span style=&quot;color: rgb(0, 0, 0); font-size: 11px; font-style: normal; font-variant-ligatures: normal; font-variant-caps: normal; font-weight: 400; letter-spacing: normal; orphans: 2; text-indent: 0px; text-transform: none; widows: 2; word-spacing: 0px; -webkit-text-stroke-width: 0px; background-color: rgb(248, 249, 250); text-decoration-thickness: initial; text-decoration-style: initial; text-decoration-color: initial; float: none; display: inline !important;&quot;&gt;编译期, 由编译器进行语法分析时得到的结果值, &lt;/span&gt;&lt;span style=&quot;font-size: 11px; font-style: normal; font-variant-ligatures: normal; font-variant-caps: normal; font-weight: 400; letter-spacing: normal; orphans: 2; text-indent: 0px; text-transform: none; widows: 2; word-spacing: 0px; -webkit-text-stroke-width: 0px; background-color: rgb(248, 249, 250); text-decoration-thickness: initial; text-decoration-style: initial; text-decoration-color: initial; float: none; display: inline !important;&quot;&gt;不产生和执行任何机器指令&lt;br style=&quot;font-size: 11px;&quot;&gt;&lt;/span&gt;" style="text;html=1;strokeColor=none;fillColor=none;align=left;verticalAlign=middle;whiteSpace=wrap;rounded=0;fontFamily=Verdana;fontSize=11;fontColor=#FF0000;" parent="1" vertex="1">
          <mxGeometry x="2980" y="-2680.44" width="400" height="27.75" as="geometry" />
        </mxCell>
        <mxCell id="onG2acxlvetChBkqUA75-176" value="&lt;span style=&quot;background-color: initial; font-size: 11px;&quot;&gt;int a = &lt;/span&gt;&lt;span style=&quot;background-color: initial; font-size: 11px;&quot; class=&quot;s2&quot;&gt;1&lt;/span&gt;&lt;span style=&quot;background-color: initial; font-size: 11px;&quot;&gt;;&lt;/span&gt;&lt;br style=&quot;font-size: 11px;&quot;&gt;&lt;p class=&quot;p1&quot; style=&quot;font-size: 11px;&quot;&gt;&lt;span style=&quot;background-color: initial; font-size: 11px;&quot; class=&quot;s3&quot;&gt;printf&lt;/span&gt;&lt;span style=&quot;background-color: initial; font-size: 11px;&quot;&gt;(&lt;/span&gt;&lt;span style=&quot;background-color: initial; font-size: 11px;&quot; class=&quot;s4&quot;&gt;&quot;%d\n&quot;&lt;/span&gt;&lt;span style=&quot;background-color: initial; font-size: 11px;&quot;&gt;, &lt;/span&gt;&lt;span style=&quot;background-color: initial; font-size: 11px;&quot; class=&quot;s1&quot;&gt;&lt;span style=&quot;font-size: 11px;&quot;&gt;sizeof&lt;/span&gt;&lt;/span&gt;&lt;span style=&quot;background-color: initial; font-size: 11px;&quot;&gt;(a++));&lt;/span&gt;&lt;/p&gt;&lt;p class=&quot;p1&quot; style=&quot;font-size: 11px;&quot;&gt;&lt;span style=&quot;background-color: initial; font-size: 11px;&quot; class=&quot;s3&quot;&gt;printf&lt;/span&gt;&lt;span style=&quot;background-color: initial; font-size: 11px;&quot;&gt;(&lt;/span&gt;&lt;span style=&quot;background-color: initial; font-size: 11px;&quot; class=&quot;s4&quot;&gt;&quot;%d\n&quot;&lt;/span&gt;&lt;span style=&quot;background-color: initial; font-size: 11px;&quot;&gt;, a); // a的结果是1&lt;/span&gt;&lt;/p&gt;" style="text;html=1;strokeColor=none;fillColor=none;align=left;verticalAlign=middle;whiteSpace=wrap;rounded=0;fontFamily=Verdana;fontSize=11;fontColor=#000000;fontStyle=0" parent="1" vertex="1">
          <mxGeometry x="3459.12" y="-2709.22" width="170" height="85.31" as="geometry" />
        </mxCell>
        <mxCell id="onG2acxlvetChBkqUA75-179" value="" style="edgeStyle=orthogonalEdgeStyle;curved=1;rounded=0;orthogonalLoop=1;jettySize=auto;html=1;fontSize=11;" parent="1" source="onG2acxlvetChBkqUA75-180" target="onG2acxlvetChBkqUA75-183" edge="1">
          <mxGeometry relative="1" as="geometry" />
        </mxCell>
        <mxCell id="onG2acxlvetChBkqUA75-180" value="字符串null terminator" style="rounded=0;whiteSpace=wrap;html=1;fillColor=#FFFFFF;fontFamily=Verdana;align=center;fontSize=11;" parent="1" vertex="1">
          <mxGeometry x="2894.5" y="-2634.44" width="140" height="31" as="geometry" />
        </mxCell>
        <mxCell id="onG2acxlvetChBkqUA75-181" value="" style="edgeStyle=orthogonalEdgeStyle;curved=1;rounded=0;orthogonalLoop=1;jettySize=auto;html=1;fontSize=11;" parent="1" source="onG2acxlvetChBkqUA75-182" target="onG2acxlvetChBkqUA75-184" edge="1">
          <mxGeometry relative="1" as="geometry" />
        </mxCell>
        <mxCell id="onG2acxlvetChBkqUA75-182" value="static" style="rounded=0;whiteSpace=wrap;html=1;fillColor=#FFFFFF;fontFamily=Verdana;align=center;fontSize=11;" parent="1" vertex="1">
          <mxGeometry x="2894.5" y="-2587.94" width="75.5" height="23.5" as="geometry" />
        </mxCell>
        <mxCell id="onG2acxlvetChBkqUA75-183" value="由于字符串是一片连续空间存储, 必须标记一个结尾\0" style="text;html=1;strokeColor=none;fillColor=none;align=left;verticalAlign=middle;whiteSpace=wrap;rounded=0;fontFamily=Verdana;fontSize=11;fontColor=#000000;" parent="1" vertex="1">
          <mxGeometry x="3074.5" y="-2630.94" width="345.5" height="24" as="geometry" />
        </mxCell>
        <mxCell id="onG2acxlvetChBkqUA75-184" value="1.修饰全局变量和函数(当前文件私有)&lt;br style=&quot;font-size: 11px;&quot;&gt;2.修饰局部变量(不再栈上存储, 而是放到.data段)" style="text;html=1;strokeColor=none;fillColor=none;align=left;verticalAlign=middle;whiteSpace=wrap;rounded=0;fontFamily=Verdana;fontSize=11;fontColor=#000000;" parent="1" vertex="1">
          <mxGeometry x="3034.5" y="-2594.94" width="315.5" height="38" as="geometry" />
        </mxCell>
        <mxCell id="onG2acxlvetChBkqUA75-185" value="" style="edgeStyle=orthogonalEdgeStyle;curved=1;rounded=0;orthogonalLoop=1;jettySize=auto;html=1;fontSize=11;" parent="1" source="onG2acxlvetChBkqUA75-186" target="onG2acxlvetChBkqUA75-188" edge="1">
          <mxGeometry relative="1" as="geometry" />
        </mxCell>
        <mxCell id="onG2acxlvetChBkqUA75-186" value="preprocess(Macros)" style="rounded=0;whiteSpace=wrap;html=1;fontSize=11;" parent="1" vertex="1">
          <mxGeometry x="2879" y="-2043.5" width="120" height="40" as="geometry" />
        </mxCell>
        <mxCell id="onG2acxlvetChBkqUA75-187" value="" style="edgeStyle=orthogonalEdgeStyle;curved=1;rounded=0;orthogonalLoop=1;jettySize=auto;html=1;fontSize=11;" parent="1" source="onG2acxlvetChBkqUA75-188" target="onG2acxlvetChBkqUA75-190" edge="1">
          <mxGeometry relative="1" as="geometry" />
        </mxCell>
        <mxCell id="onG2acxlvetChBkqUA75-188" value="compile" style="rounded=0;whiteSpace=wrap;html=1;fontSize=11;" parent="1" vertex="1">
          <mxGeometry x="3054" y="-2043.5" width="100" height="40" as="geometry" />
        </mxCell>
        <mxCell id="onG2acxlvetChBkqUA75-189" value="" style="edgeStyle=orthogonalEdgeStyle;curved=1;rounded=0;orthogonalLoop=1;jettySize=auto;html=1;fontSize=11;" parent="1" source="onG2acxlvetChBkqUA75-190" target="onG2acxlvetChBkqUA75-192" edge="1">
          <mxGeometry relative="1" as="geometry" />
        </mxCell>
        <mxCell id="onG2acxlvetChBkqUA75-190" value="assemble(gas)" style="rounded=0;whiteSpace=wrap;html=1;fontSize=11;" parent="1" vertex="1">
          <mxGeometry x="3209" y="-2043.5" width="100" height="40" as="geometry" />
        </mxCell>
        <mxCell id="onG2acxlvetChBkqUA75-191" value="" style="edgeStyle=orthogonalEdgeStyle;curved=1;rounded=0;orthogonalLoop=1;jettySize=auto;html=1;fontSize=11;" parent="1" source="onG2acxlvetChBkqUA75-192" target="onG2acxlvetChBkqUA75-194" edge="1">
          <mxGeometry relative="1" as="geometry" />
        </mxCell>
        <mxCell id="onG2acxlvetChBkqUA75-192" value="linking" style="rounded=0;whiteSpace=wrap;html=1;fontSize=11;" parent="1" vertex="1">
          <mxGeometry x="3369" y="-2043.5" width="100" height="40" as="geometry" />
        </mxCell>
        <mxCell id="onG2acxlvetChBkqUA75-193" value="" style="edgeStyle=orthogonalEdgeStyle;rounded=0;orthogonalLoop=1;jettySize=auto;html=1;fontSize=11;" parent="1" source="onG2acxlvetChBkqUA75-194" target="onG2acxlvetChBkqUA75-202" edge="1">
          <mxGeometry relative="1" as="geometry" />
        </mxCell>
        <mxCell id="onG2acxlvetChBkqUA75-194" value="二进制文件" style="rounded=0;whiteSpace=wrap;html=1;fontSize=11;" parent="1" vertex="1">
          <mxGeometry x="3519" y="-2043.5" width="100" height="40" as="geometry" />
        </mxCell>
        <mxCell id="onG2acxlvetChBkqUA75-195" value="int main() {&lt;br style=&quot;font-size: 11px;&quot;&gt;&lt;span style=&quot;white-space: pre; font-size: 11px;&quot;&gt; &lt;/span&gt;func(1,2,3);&lt;br style=&quot;font-size: 11px;&quot;&gt;&lt;span style=&quot;white-space: pre; font-size: 11px;&quot;&gt; &lt;/span&gt;return 0;&lt;br style=&quot;font-size: 11px;&quot;&gt;}&lt;br style=&quot;font-size: 11px;&quot;&gt;就算不定义func, 编译是可以通过的, 但是在链接时, 找不到对应的.globl的reference, 就会报错" style="text;html=1;strokeColor=none;fillColor=none;align=left;verticalAlign=middle;whiteSpace=wrap;rounded=0;fontFamily=Verdana;fontSize=11;fontColor=#000000;" parent="1" vertex="1">
          <mxGeometry x="3219.5" y="-2544.44" width="440.5" height="76.5" as="geometry" />
        </mxCell>
        <mxCell id="onG2acxlvetChBkqUA75-196" value=".c" style="text;html=1;strokeColor=none;fillColor=none;align=center;verticalAlign=middle;whiteSpace=wrap;rounded=0;fontSize=11;" parent="1" vertex="1">
          <mxGeometry x="2824" y="-2053.5" width="60" height="30" as="geometry" />
        </mxCell>
        <mxCell id="onG2acxlvetChBkqUA75-197" value=".s" style="text;html=1;strokeColor=none;fillColor=none;align=center;verticalAlign=middle;whiteSpace=wrap;rounded=0;fontSize=11;" parent="1" vertex="1">
          <mxGeometry x="3149" y="-2053.5" width="60" height="30" as="geometry" />
        </mxCell>
        <mxCell id="onG2acxlvetChBkqUA75-198" value="而汇编器的输出为二进制文件, 只要是二进制文件, 就一定要有格式约定, 这个格式与汇编器相关, 即汇编器要生成对应平台的格式, Linux使用ELF文件格式&lt;br style=&quot;font-size: 11px;&quot;&gt;&lt;br style=&quot;font-size: 11px;&quot;&gt;&lt;span style=&quot;text-align: center; font-size: 11px;&quot;&gt;.o, .out, 动态链接库(.so), 静态链接库(.a)都是ELF格式&lt;/span&gt;" style="text;html=1;strokeColor=none;fillColor=none;align=left;verticalAlign=middle;whiteSpace=wrap;rounded=0;fontSize=11;" parent="1" vertex="1">
          <mxGeometry x="3339.13" y="-2141.5" width="388.37" height="75.5" as="geometry" />
        </mxCell>
        <mxCell id="onG2acxlvetChBkqUA75-199" value=".i" style="text;html=1;strokeColor=none;fillColor=none;align=center;verticalAlign=middle;whiteSpace=wrap;rounded=0;fontSize=11;" parent="1" vertex="1">
          <mxGeometry x="2994" y="-2053.5" width="60" height="30" as="geometry" />
        </mxCell>
        <mxCell id="onG2acxlvetChBkqUA75-200" value=".o" style="text;html=1;strokeColor=none;fillColor=none;align=center;verticalAlign=middle;whiteSpace=wrap;rounded=0;fontSize=11;" parent="1" vertex="1">
          <mxGeometry x="3309" y="-2053.5" width="60" height="30" as="geometry" />
        </mxCell>
        <mxCell id="onG2acxlvetChBkqUA75-201" value="" style="edgeStyle=orthogonalEdgeStyle;curved=1;rounded=0;orthogonalLoop=1;jettySize=auto;html=1;fontSize=11;fontColor=#000000;" parent="1" source="onG2acxlvetChBkqUA75-202" target="onG2acxlvetChBkqUA75-236" edge="1">
          <mxGeometry relative="1" as="geometry" />
        </mxCell>
        <mxCell id="onG2acxlvetChBkqUA75-202" value="Loader" style="rounded=0;whiteSpace=wrap;html=1;fontSize=11;" parent="1" vertex="1">
          <mxGeometry x="3659" y="-2043.5" width="100" height="40" as="geometry" />
        </mxCell>
        <mxCell id="onG2acxlvetChBkqUA75-203" value="" style="edgeStyle=orthogonalEdgeStyle;curved=1;rounded=0;orthogonalLoop=1;jettySize=auto;html=1;fontSize=11;fontColor=#FFFFFF;fillColor=#CCE5FF;" parent="1" source="onG2acxlvetChBkqUA75-204" target="onG2acxlvetChBkqUA75-205" edge="1">
          <mxGeometry relative="1" as="geometry" />
        </mxCell>
        <mxCell id="onG2acxlvetChBkqUA75-204" value="extern" style="rounded=0;whiteSpace=wrap;html=1;fillColor=#FFFFFF;fontFamily=Verdana;align=center;fontSize=11;" parent="1" vertex="1">
          <mxGeometry x="2894.5" y="-2544.44" width="75.5" height="20" as="geometry" />
        </mxCell>
        <mxCell id="onG2acxlvetChBkqUA75-205" value="引用外部定义的变量或函数" style="text;html=1;strokeColor=none;fillColor=none;align=left;verticalAlign=middle;whiteSpace=wrap;rounded=0;fontFamily=Verdana;fontSize=11;fontColor=#000000;" parent="1" vertex="1">
          <mxGeometry x="3034.5" y="-2544.44" width="175.5" height="20" as="geometry" />
        </mxCell>
        <mxCell id="onG2acxlvetChBkqUA75-206" style="edgeStyle=orthogonalEdgeStyle;curved=1;rounded=0;orthogonalLoop=1;jettySize=auto;html=1;entryX=0;entryY=0.5;entryDx=0;entryDy=0;fontSize=11;fontColor=#FF0000;" parent="1" source="onG2acxlvetChBkqUA75-209" target="onG2acxlvetChBkqUA75-215" edge="1">
          <mxGeometry relative="1" as="geometry" />
        </mxCell>
        <mxCell id="onG2acxlvetChBkqUA75-207" style="edgeStyle=orthogonalEdgeStyle;curved=1;rounded=0;orthogonalLoop=1;jettySize=auto;html=1;entryX=0;entryY=0.5;entryDx=0;entryDy=0;fontSize=11;fontColor=#FF0000;" parent="1" source="onG2acxlvetChBkqUA75-209" target="onG2acxlvetChBkqUA75-213" edge="1">
          <mxGeometry relative="1" as="geometry" />
        </mxCell>
        <mxCell id="onG2acxlvetChBkqUA75-208" style="edgeStyle=orthogonalEdgeStyle;curved=1;rounded=0;orthogonalLoop=1;jettySize=auto;html=1;entryX=0;entryY=0.5;entryDx=0;entryDy=0;fontColor=#FF8000;fontSize=11;" parent="1" source="onG2acxlvetChBkqUA75-209" target="onG2acxlvetChBkqUA75-264" edge="1">
          <mxGeometry relative="1" as="geometry" />
        </mxCell>
        <mxCell id="onG2acxlvetChBkqUA75-209" value="Linking" style="rounded=0;whiteSpace=wrap;html=1;fillColor=#FFFFFF;fontFamily=Verdana;align=center;fontSize=11;" parent="1" vertex="1">
          <mxGeometry x="2695.25" y="-1771.46" width="115.75" height="33.75" as="geometry" />
        </mxCell>
        <mxCell id="onG2acxlvetChBkqUA75-210" style="edgeStyle=orthogonalEdgeStyle;curved=1;rounded=0;orthogonalLoop=1;jettySize=auto;html=1;entryX=0;entryY=0.5;entryDx=0;entryDy=0;fontSize=11;fontColor=#000000;" parent="1" source="onG2acxlvetChBkqUA75-213" target="onG2acxlvetChBkqUA75-237" edge="1">
          <mxGeometry relative="1" as="geometry" />
        </mxCell>
        <mxCell id="onG2acxlvetChBkqUA75-211" style="edgeStyle=orthogonalEdgeStyle;curved=1;rounded=0;orthogonalLoop=1;jettySize=auto;html=1;entryX=0;entryY=0.5;entryDx=0;entryDy=0;fontSize=11;fontColor=#000000;" parent="1" source="onG2acxlvetChBkqUA75-213" target="onG2acxlvetChBkqUA75-239" edge="1">
          <mxGeometry relative="1" as="geometry" />
        </mxCell>
        <mxCell id="onG2acxlvetChBkqUA75-212" style="edgeStyle=orthogonalEdgeStyle;curved=1;rounded=0;orthogonalLoop=1;jettySize=auto;html=1;entryX=0;entryY=0.5;entryDx=0;entryDy=0;fontColor=#FF8000;fontSize=11;" parent="1" source="onG2acxlvetChBkqUA75-213" target="onG2acxlvetChBkqUA75-280" edge="1">
          <mxGeometry relative="1" as="geometry" />
        </mxCell>
        <mxCell id="onG2acxlvetChBkqUA75-213" value="dynamic linking" style="rounded=0;whiteSpace=wrap;html=1;fillColor=#FFFFFF;fontFamily=Verdana;align=center;fontSize=11;" parent="1" vertex="1">
          <mxGeometry x="3184" y="-1776.21" width="105.5" height="30" as="geometry" />
        </mxCell>
        <mxCell id="onG2acxlvetChBkqUA75-214" style="edgeStyle=orthogonalEdgeStyle;curved=1;rounded=0;orthogonalLoop=1;jettySize=auto;html=1;entryX=0;entryY=0.5;entryDx=0;entryDy=0;fontSize=11;fontColor=#000000;fillColor=#CCE5FF;" parent="1" source="onG2acxlvetChBkqUA75-215" target="onG2acxlvetChBkqUA75-218" edge="1">
          <mxGeometry relative="1" as="geometry" />
        </mxCell>
        <mxCell id="onG2acxlvetChBkqUA75-215" value="static linking" style="rounded=0;whiteSpace=wrap;html=1;fillColor=#FFFFFF;fontFamily=Verdana;align=center;fontSize=11;" parent="1" vertex="1">
          <mxGeometry x="3194" y="-1851.71" width="85.5" height="27.5" as="geometry" />
        </mxCell>
        <mxCell id="onG2acxlvetChBkqUA75-216" style="edgeStyle=orthogonalEdgeStyle;curved=1;rounded=0;orthogonalLoop=1;jettySize=auto;html=1;entryX=0;entryY=0.5;entryDx=0;entryDy=0;fontSize=11;fontColor=#FFFFFF;fillColor=#CCE5FF;" parent="1" source="onG2acxlvetChBkqUA75-217" target="onG2acxlvetChBkqUA75-145" edge="1">
          <mxGeometry relative="1" as="geometry" />
        </mxCell>
        <mxCell id="onG2acxlvetChBkqUA75-217" value="程序流" style="rounded=0;whiteSpace=wrap;html=1;fillColor=#FFFFFF;fontFamily=Verdana;align=center;fontSize=11;" parent="1" vertex="1">
          <mxGeometry x="2691" y="-2042.5" width="70" height="40" as="geometry" />
        </mxCell>
        <mxCell id="onG2acxlvetChBkqUA75-218" value="static library" style="rounded=0;whiteSpace=wrap;html=1;fillColor=#FFFFFF;fontFamily=Verdana;align=center;fontSize=11;" parent="1" vertex="1">
          <mxGeometry x="3327" y="-1851.71" width="86" height="30" as="geometry" />
        </mxCell>
        <mxCell id="onG2acxlvetChBkqUA75-219" value="a single file packaging related object modules" style="text;html=1;strokeColor=none;fillColor=none;align=center;verticalAlign=middle;whiteSpace=wrap;rounded=0;labelBackgroundColor=none;fontSize=11;fontColor=#000000;" parent="1" vertex="1">
          <mxGeometry x="3313.5" y="-1885.21" width="120" height="30" as="geometry" />
        </mxCell>
        <mxCell id="onG2acxlvetChBkqUA75-220" style="edgeStyle=orthogonalEdgeStyle;rounded=0;orthogonalLoop=1;jettySize=auto;html=1;entryX=0;entryY=0.5;entryDx=0;entryDy=0;fontSize=11;fontColor=#000000;curved=1;exitX=1;exitY=0.5;exitDx=0;exitDy=0;" parent="1" source="onG2acxlvetChBkqUA75-271" target="onG2acxlvetChBkqUA75-226" edge="1">
          <mxGeometry relative="1" as="geometry">
            <mxPoint x="2912.63" y="-1442.0333333333333" as="sourcePoint" />
          </mxGeometry>
        </mxCell>
        <mxCell id="onG2acxlvetChBkqUA75-221" style="edgeStyle=orthogonalEdgeStyle;curved=1;rounded=0;orthogonalLoop=1;jettySize=auto;html=1;entryX=0;entryY=0.5;entryDx=0;entryDy=0;fontSize=11;fontColor=#000000;exitX=1;exitY=0.5;exitDx=0;exitDy=0;" parent="1" source="onG2acxlvetChBkqUA75-271" target="onG2acxlvetChBkqUA75-229" edge="1">
          <mxGeometry relative="1" as="geometry">
            <mxPoint x="2912.63" y="-1442.0333333333333" as="sourcePoint" />
          </mxGeometry>
        </mxCell>
        <mxCell id="onG2acxlvetChBkqUA75-222" style="edgeStyle=orthogonalEdgeStyle;curved=1;rounded=0;orthogonalLoop=1;jettySize=auto;html=1;entryX=0;entryY=0.5;entryDx=0;entryDy=0;fontSize=11;fontColor=#000000;exitX=1;exitY=0.5;exitDx=0;exitDy=0;" parent="1" source="onG2acxlvetChBkqUA75-271" target="onG2acxlvetChBkqUA75-232" edge="1">
          <mxGeometry relative="1" as="geometry">
            <mxPoint x="2912.63" y="-1442.0333333333333" as="sourcePoint" />
            <Array as="points">
              <mxPoint x="2934.13" y="-1441.79" />
              <mxPoint x="2934.13" y="-1368.79" />
            </Array>
          </mxGeometry>
        </mxCell>
        <mxCell id="onG2acxlvetChBkqUA75-223" style="edgeStyle=orthogonalEdgeStyle;curved=1;rounded=0;orthogonalLoop=1;jettySize=auto;html=1;entryX=0;entryY=0.5;entryDx=0;entryDy=0;fontSize=11;" parent="1" source="onG2acxlvetChBkqUA75-225" target="onG2acxlvetChBkqUA75-271" edge="1">
          <mxGeometry relative="1" as="geometry" />
        </mxCell>
        <mxCell id="onG2acxlvetChBkqUA75-224" style="edgeStyle=orthogonalEdgeStyle;curved=1;rounded=0;orthogonalLoop=1;jettySize=auto;html=1;entryX=0;entryY=0.5;entryDx=0;entryDy=0;fontSize=11;" parent="1" source="onG2acxlvetChBkqUA75-225" target="onG2acxlvetChBkqUA75-270" edge="1">
          <mxGeometry relative="1" as="geometry" />
        </mxCell>
        <UserObject label="ELF" link="https://app.diagrams.net/?mode=github#Hhaoboliu66%2FDiagram%2Fmain%2Felf.drawio" id="onG2acxlvetChBkqUA75-225">
          <mxCell style="rounded=0;whiteSpace=wrap;html=1;fillColor=#FFFFFF;fontFamily=Verdana;align=center;fontSize=11;" parent="1" vertex="1">
            <mxGeometry x="2695.63" y="-1400.38" width="79.5" height="32.5" as="geometry" />
          </mxCell>
        </UserObject>
        <mxCell id="onG2acxlvetChBkqUA75-226" value="relocatable object file" style="rounded=0;whiteSpace=wrap;html=1;fillColor=#FFFFFF;fontFamily=Verdana;align=center;fontSize=11;" parent="1" vertex="1">
          <mxGeometry x="2969.13" y="-1510" width="140" height="30" as="geometry" />
        </mxCell>
        <mxCell id="onG2acxlvetChBkqUA75-227" value="" style="edgeStyle=orthogonalEdgeStyle;rounded=0;orthogonalLoop=1;jettySize=auto;html=1;fontSize=11;fontColor=#000000;curved=1;entryX=0;entryY=0.5;entryDx=0;entryDy=0;" parent="1" source="onG2acxlvetChBkqUA75-229" target="onG2acxlvetChBkqUA75-230" edge="1">
          <mxGeometry relative="1" as="geometry">
            <mxPoint x="3147.88" y="-1468.5" as="targetPoint" />
          </mxGeometry>
        </mxCell>
        <mxCell id="onG2acxlvetChBkqUA75-228" value="" style="edgeStyle=orthogonalEdgeStyle;curved=1;rounded=0;orthogonalLoop=1;jettySize=auto;html=1;entryX=0;entryY=0.5;entryDx=0;entryDy=0;fontSize=11;" parent="1" source="onG2acxlvetChBkqUA75-229" target="onG2acxlvetChBkqUA75-259" edge="1">
          <mxGeometry relative="1" as="geometry">
            <mxPoint x="3144.880000000001" y="-1414.3284615384619" as="targetPoint" />
          </mxGeometry>
        </mxCell>
        <mxCell id="onG2acxlvetChBkqUA75-229" value="executable object file" style="rounded=0;whiteSpace=wrap;html=1;fillColor=#FFFFFF;fontFamily=Verdana;align=center;fontSize=11;" parent="1" vertex="1">
          <mxGeometry x="2969.13" y="-1456.5" width="140" height="30" as="geometry" />
        </mxCell>
        <mxCell id="onG2acxlvetChBkqUA75-230" value="fully linked(relocated), no .rel section" style="text;html=1;strokeColor=none;fillColor=none;align=center;verticalAlign=middle;whiteSpace=wrap;rounded=0;labelBackgroundColor=none;fontSize=11;fontColor=#000000;" parent="1" vertex="1">
          <mxGeometry x="3144.88" y="-1485.0900000000001" width="200" height="36" as="geometry" />
        </mxCell>
        <mxCell id="onG2acxlvetChBkqUA75-231" value="" style="edgeStyle=orthogonalEdgeStyle;rounded=0;orthogonalLoop=1;jettySize=auto;html=1;fontSize=11;" parent="1" source="onG2acxlvetChBkqUA75-232" target="onG2acxlvetChBkqUA75-258" edge="1">
          <mxGeometry relative="1" as="geometry" />
        </mxCell>
        <mxCell id="onG2acxlvetChBkqUA75-232" value="shared object file" style="rounded=0;whiteSpace=wrap;html=1;fillColor=#FFFFFF;fontFamily=Verdana;align=center;fontSize=11;" parent="1" vertex="1">
          <mxGeometry x="2967.88" y="-1383.7" width="140" height="30" as="geometry" />
        </mxCell>
        <mxCell id="onG2acxlvetChBkqUA75-233" style="edgeStyle=orthogonalEdgeStyle;rounded=0;orthogonalLoop=1;jettySize=auto;html=1;exitX=0.5;exitY=1;exitDx=0;exitDy=0;fontSize=11;fontColor=#000000;" parent="1" edge="1">
          <mxGeometry relative="1" as="geometry">
            <mxPoint x="3033.760000000001" y="-1337.8000000000002" as="sourcePoint" />
            <mxPoint x="3033.760000000001" y="-1337.8000000000002" as="targetPoint" />
          </mxGeometry>
        </mxCell>
        <mxCell id="onG2acxlvetChBkqUA75-234" value="缺点: 1.一旦library更新了, 就要重新编译链接;&amp;nbsp;&lt;br style=&quot;font-size: 11px;&quot;&gt;2. 浪费内存空间(进程的text segment的duplicate代码)" style="text;html=1;strokeColor=none;fillColor=none;align=center;verticalAlign=middle;whiteSpace=wrap;rounded=0;labelBackgroundColor=none;fontSize=11;fontColor=#000000;" parent="1" vertex="1">
          <mxGeometry x="3457.5" y="-1861.71" width="270" height="40" as="geometry" />
        </mxCell>
        <mxCell id="onG2acxlvetChBkqUA75-235" value="当executable生成时, 完成部分linking statically, complete linking是在program is loaded" style="text;html=1;strokeColor=none;fillColor=none;align=center;verticalAlign=middle;whiteSpace=wrap;rounded=0;labelBackgroundColor=none;fontSize=11;fontColor=#000000;" parent="1" vertex="1">
          <mxGeometry x="3494" y="-1806.21" width="290.5" height="40" as="geometry" />
        </mxCell>
        <mxCell id="onG2acxlvetChBkqUA75-236" value="Dynamic Linking" style="rounded=0;whiteSpace=wrap;html=1;fontSize=11;" parent="1" vertex="1">
          <mxGeometry x="3809.5" y="-2043.5" width="100" height="40" as="geometry" />
        </mxCell>
        <mxCell id="onG2acxlvetChBkqUA75-237" value="loader调用dynamic-linker" style="text;html=1;strokeColor=none;fillColor=none;align=center;verticalAlign=middle;whiteSpace=wrap;rounded=0;labelBackgroundColor=none;fontSize=11;fontColor=#000000;" parent="1" vertex="1">
          <mxGeometry x="3334" y="-1800.71" width="150.5" height="20" as="geometry" />
        </mxCell>
        <mxCell id="onG2acxlvetChBkqUA75-238" value="" style="edgeStyle=orthogonalEdgeStyle;curved=1;rounded=0;orthogonalLoop=1;jettySize=auto;html=1;fontSize=11;fontColor=#000000;" parent="1" source="onG2acxlvetChBkqUA75-239" target="onG2acxlvetChBkqUA75-240" edge="1">
          <mxGeometry relative="1" as="geometry" />
        </mxCell>
        <mxCell id="onG2acxlvetChBkqUA75-239" value="application调用dynamic-linker" style="text;html=1;strokeColor=none;fillColor=none;align=center;verticalAlign=middle;whiteSpace=wrap;rounded=0;labelBackgroundColor=none;fontSize=11;fontColor=#000000;" parent="1" vertex="1">
          <mxGeometry x="3330.5" y="-1757.71" width="150.5" height="20" as="geometry" />
        </mxCell>
        <mxCell id="onG2acxlvetChBkqUA75-240" value="Linux: dlopen调用dynamic-linker" style="text;html=1;strokeColor=none;fillColor=none;align=center;verticalAlign=middle;whiteSpace=wrap;rounded=0;labelBackgroundColor=none;fontSize=11;fontColor=#000000;" parent="1" vertex="1">
          <mxGeometry x="3513.5" y="-1755.21" width="180.25" height="15" as="geometry" />
        </mxCell>
        <mxCell id="onG2acxlvetChBkqUA75-241" value="" style="edgeStyle=orthogonalEdgeStyle;curved=1;rounded=0;orthogonalLoop=1;jettySize=auto;html=1;fontSize=11;" parent="1" source="onG2acxlvetChBkqUA75-242" target="onG2acxlvetChBkqUA75-244" edge="1">
          <mxGeometry relative="1" as="geometry" />
        </mxCell>
        <mxCell id="onG2acxlvetChBkqUA75-242" value="Sections" style="text;html=1;strokeColor=none;fillColor=none;align=center;verticalAlign=middle;whiteSpace=wrap;rounded=0;fontSize=11;" parent="1" vertex="1">
          <mxGeometry x="4048.5" y="-1648" width="60" height="30" as="geometry" />
        </mxCell>
        <mxCell id="onG2acxlvetChBkqUA75-243" value="" style="edgeStyle=orthogonalEdgeStyle;curved=1;rounded=0;orthogonalLoop=1;jettySize=auto;html=1;fontSize=11;" parent="1" edge="1">
          <mxGeometry relative="1" as="geometry">
            <mxPoint x="4113.799999999999" y="-1495.42" as="sourcePoint" />
            <mxPoint x="4175.299999999999" y="-1495.42" as="targetPoint" />
          </mxGeometry>
        </mxCell>
        <mxCell id="onG2acxlvetChBkqUA75-244" value="Segment" style="text;html=1;strokeColor=none;fillColor=none;align=center;verticalAlign=middle;whiteSpace=wrap;rounded=0;fontSize=11;" parent="1" vertex="1">
          <mxGeometry x="4048.5" y="-1509.5900000000001" width="60" height="30" as="geometry" />
        </mxCell>
        <mxCell id="onG2acxlvetChBkqUA75-245" value="VMA" style="text;html=1;strokeColor=none;fillColor=none;align=center;verticalAlign=middle;whiteSpace=wrap;rounded=0;fontSize=11;" parent="1" vertex="1">
          <mxGeometry x="4170" y="-1509.5900000000001" width="60" height="30" as="geometry" />
        </mxCell>
        <mxCell id="onG2acxlvetChBkqUA75-246" value="在ELF可执行文件中, 相同属性的Section会被归类为同一个Segment, 便于OS进行装载, 把一个Segment映射到一个VMA, OS通过划分VMA来管理进程的虚拟空间" style="text;html=1;strokeColor=none;fillColor=none;align=left;verticalAlign=middle;whiteSpace=wrap;rounded=0;fontSize=11;" parent="1" vertex="1">
          <mxGeometry x="4121.5" y="-1599.5900000000001" width="210" height="57" as="geometry" />
        </mxCell>
        <mxCell id="onG2acxlvetChBkqUA75-247" value="&lt;font color=&quot;#ff0000&quot; style=&quot;font-size: 11px;&quot;&gt;Segment和Section是从不同角度来划分ELF文件的内容, 是不同的View, 从Section角度看ELF就是Linking View; 从Segment角度来看就是Execution View&lt;/font&gt;" style="text;html=1;strokeColor=none;fillColor=none;align=left;verticalAlign=middle;whiteSpace=wrap;rounded=0;fontSize=11;" parent="1" vertex="1">
          <mxGeometry x="3980" y="-1716" width="284" height="61" as="geometry" />
        </mxCell>
        <mxCell id="onG2acxlvetChBkqUA75-248" style="edgeStyle=orthogonalEdgeStyle;curved=1;rounded=0;orthogonalLoop=1;jettySize=auto;html=1;entryX=0;entryY=0.5;entryDx=0;entryDy=0;fontColor=#000000;fontSize=11;" parent="1" source="onG2acxlvetChBkqUA75-254" target="onG2acxlvetChBkqUA75-165" edge="1">
          <mxGeometry relative="1" as="geometry" />
        </mxCell>
        <mxCell id="onG2acxlvetChBkqUA75-249" style="edgeStyle=orthogonalEdgeStyle;curved=1;rounded=0;orthogonalLoop=1;jettySize=auto;html=1;entryX=0;entryY=0.5;entryDx=0;entryDy=0;fontColor=#000000;fontSize=11;" parent="1" source="onG2acxlvetChBkqUA75-254" target="onG2acxlvetChBkqUA75-209" edge="1">
          <mxGeometry relative="1" as="geometry" />
        </mxCell>
        <mxCell id="onG2acxlvetChBkqUA75-250" style="edgeStyle=orthogonalEdgeStyle;curved=1;rounded=0;orthogonalLoop=1;jettySize=auto;html=1;entryX=0;entryY=0.5;entryDx=0;entryDy=0;fontColor=#000000;fontSize=11;" parent="1" source="onG2acxlvetChBkqUA75-254" target="onG2acxlvetChBkqUA75-225" edge="1">
          <mxGeometry relative="1" as="geometry" />
        </mxCell>
        <mxCell id="onG2acxlvetChBkqUA75-251" style="edgeStyle=orthogonalEdgeStyle;curved=1;rounded=0;orthogonalLoop=1;jettySize=auto;html=1;entryX=0;entryY=0.5;entryDx=0;entryDy=0;fontColor=#000000;fontSize=11;" parent="1" source="onG2acxlvetChBkqUA75-254" target="onG2acxlvetChBkqUA75-217" edge="1">
          <mxGeometry relative="1" as="geometry" />
        </mxCell>
        <mxCell id="onG2acxlvetChBkqUA75-252" style="edgeStyle=orthogonalEdgeStyle;rounded=0;orthogonalLoop=1;jettySize=auto;html=1;entryX=0;entryY=0.5;entryDx=0;entryDy=0;curved=1;fontSize=11;" parent="1" source="onG2acxlvetChBkqUA75-254" target="onG2acxlvetChBkqUA75-261" edge="1">
          <mxGeometry relative="1" as="geometry" />
        </mxCell>
        <mxCell id="onG2acxlvetChBkqUA75-253" style="edgeStyle=orthogonalEdgeStyle;rounded=0;orthogonalLoop=1;jettySize=auto;html=1;entryX=0;entryY=0.5;entryDx=0;entryDy=0;curved=1;fontSize=11;" parent="1" source="onG2acxlvetChBkqUA75-254" target="onG2acxlvetChBkqUA75-267" edge="1">
          <mxGeometry relative="1" as="geometry" />
        </mxCell>
        <mxCell id="qvjmshA6DQtf6-69wwgu-1" style="edgeStyle=orthogonalEdgeStyle;rounded=0;orthogonalLoop=1;jettySize=auto;html=1;entryX=0;entryY=0.5;entryDx=0;entryDy=0;curved=1;fontSize=11;" parent="1" source="onG2acxlvetChBkqUA75-254" target="onG2acxlvetChBkqUA75-162" edge="1">
          <mxGeometry relative="1" as="geometry" />
        </mxCell>
        <mxCell id="onG2acxlvetChBkqUA75-254" value="C程序" style="rounded=0;whiteSpace=wrap;html=1;fillColor=#FFFFFF;fontFamily=Verdana;align=center;fontSize=11;" parent="1" vertex="1">
          <mxGeometry x="2000" y="-2086.5" width="170" height="63" as="geometry" />
        </mxCell>
        <mxCell id="onG2acxlvetChBkqUA75-255" value="Alignment" style="rounded=0;whiteSpace=wrap;html=1;fillColor=#FFFFFF;fontFamily=Verdana;align=center;fontSize=11;" parent="1" vertex="1">
          <mxGeometry x="2811" y="-3260" width="100" height="40" as="geometry" />
        </mxCell>
        <mxCell id="onG2acxlvetChBkqUA75-256" value="Intel支持内存不对齐的操作; 但是出于性能考虑, 还是尽可能的进行内存对齐; 不对齐可能会导致连续数据被截断访问, 产生额外一次的memory access" style="text;html=1;strokeColor=none;fillColor=none;align=left;verticalAlign=middle;whiteSpace=wrap;rounded=0;fontFamily=Verdana;fontSize=11;fontColor=#000000;" parent="1" vertex="1">
          <mxGeometry x="2946.25" y="-3270" width="300" height="60" as="geometry" />
        </mxCell>
        <mxCell id="onG2acxlvetChBkqUA75-257" value="libjvm.so" style="text;html=1;strokeColor=none;fillColor=none;align=center;verticalAlign=middle;whiteSpace=wrap;rounded=0;fontSize=11;fontColor=#000000;" parent="1" vertex="1">
          <mxGeometry x="3279.63" y="-1385.4499999999998" width="75" height="33.5" as="geometry" />
        </mxCell>
        <mxCell id="onG2acxlvetChBkqUA75-258" value="共享代码, 数据独立" style="text;html=1;strokeColor=none;fillColor=none;align=center;verticalAlign=middle;whiteSpace=wrap;rounded=0;labelBackgroundColor=none;fontSize=11;fontColor=#000000;" parent="1" vertex="1">
          <mxGeometry x="3140.51" y="-1386.6999999999998" width="147.25" height="36" as="geometry" />
        </mxCell>
        <mxCell id="onG2acxlvetChBkqUA75-259" value="根据ELF program header创建进程并执行 _start, __libc_start_main, init, main, fini" style="text;html=1;strokeColor=none;fillColor=none;align=center;verticalAlign=middle;whiteSpace=wrap;rounded=0;labelBackgroundColor=none;fontSize=11;fontColor=#FF0000;fontStyle=1" parent="1" vertex="1">
          <mxGeometry x="3144.88" y="-1438.38" width="255.25" height="33.59" as="geometry" />
        </mxCell>
        <mxCell id="onG2acxlvetChBkqUA75-260" style="edgeStyle=orthogonalEdgeStyle;curved=1;rounded=0;orthogonalLoop=1;jettySize=auto;html=1;entryX=0;entryY=0.5;entryDx=0;entryDy=0;fontColor=#FF8000;fontSize=11;" parent="1" source="onG2acxlvetChBkqUA75-261" target="onG2acxlvetChBkqUA75-277" edge="1">
          <mxGeometry relative="1" as="geometry" />
        </mxCell>
        <mxCell id="onG2acxlvetChBkqUA75-261" value="Glibc函数库(C-Runtime)" style="rounded=0;whiteSpace=wrap;html=1;fillColor=#FFFFFF;fontFamily=Verdana;align=center;fontSize=11;" parent="1" vertex="1">
          <mxGeometry x="2677.88" y="-1081.7499999999998" width="169" height="37.5" as="geometry" />
        </mxCell>
        <mxCell id="onG2acxlvetChBkqUA75-262" value="去除elf文件中的.symtab&lt;br style=&quot;font-size: 11px;&quot;&gt;.symtab就是目标文件中数据, 代码的索引" style="text;html=1;strokeColor=none;fillColor=none;align=center;verticalAlign=middle;whiteSpace=wrap;rounded=0;labelBackgroundColor=none;fontSize=11;fontColor=#000000;" parent="1" vertex="1">
          <mxGeometry x="2959.13" y="-1327.75" width="240" height="40" as="geometry" />
        </mxCell>
        <mxCell id="onG2acxlvetChBkqUA75-263" value="" style="edgeStyle=orthogonalEdgeStyle;curved=1;rounded=0;orthogonalLoop=1;jettySize=auto;html=1;fontSize=11;" parent="1" source="onG2acxlvetChBkqUA75-264" target="onG2acxlvetChBkqUA75-265" edge="1">
          <mxGeometry relative="1" as="geometry" />
        </mxCell>
        <mxCell id="onG2acxlvetChBkqUA75-264" value="method signature" style="rounded=0;whiteSpace=wrap;html=1;fillColor=#FFFFFF;fontFamily=Verdana;align=center;fontSize=11;" parent="1" vertex="1">
          <mxGeometry x="3172.63" y="-1653" width="105.5" height="30" as="geometry" />
        </mxCell>
        <mxCell id="onG2acxlvetChBkqUA75-265" value="在C语言中, 不能有重复的函数名定义(符号重复); 但是在C++和Java中可以, 因为这两个语言中有method signature (函数名 + 参数列表)" style="text;html=1;strokeColor=none;fillColor=none;align=center;verticalAlign=middle;whiteSpace=wrap;rounded=0;labelBackgroundColor=none;fontSize=11;fontColor=#000000;" parent="1" vertex="1">
          <mxGeometry x="3318.63" y="-1658" width="240" height="40" as="geometry" />
        </mxCell>
        <mxCell id="onG2acxlvetChBkqUA75-266" value="" style="edgeStyle=orthogonalEdgeStyle;rounded=0;orthogonalLoop=1;jettySize=auto;html=1;fontSize=11;" parent="1" source="onG2acxlvetChBkqUA75-267" target="onG2acxlvetChBkqUA75-268" edge="1">
          <mxGeometry relative="1" as="geometry" />
        </mxCell>
        <mxCell id="onG2acxlvetChBkqUA75-267" value="Debug原理" style="rounded=0;whiteSpace=wrap;html=1;fillColor=#FFFFFF;fontFamily=Verdana;align=center;fontSize=11;" parent="1" vertex="1">
          <mxGeometry x="2695.63" y="-1271.16" width="79.5" height="32.5" as="geometry" />
        </mxCell>
        <mxCell id="onG2acxlvetChBkqUA75-268" value="把要执行的指令地址改为Int 3" style="text;html=1;strokeColor=none;fillColor=none;align=center;verticalAlign=middle;whiteSpace=wrap;rounded=0;labelBackgroundColor=none;fontSize=11;fontColor=#000000;" parent="1" vertex="1">
          <mxGeometry x="2801.13" y="-1272.97" width="169" height="36.12" as="geometry" />
        </mxCell>
        <mxCell id="onG2acxlvetChBkqUA75-269" value="" style="edgeStyle=orthogonalEdgeStyle;curved=1;rounded=0;orthogonalLoop=1;jettySize=auto;html=1;fontSize=11;" parent="1" source="onG2acxlvetChBkqUA75-270" target="onG2acxlvetChBkqUA75-262" edge="1">
          <mxGeometry relative="1" as="geometry">
            <mxPoint x="2969.01" y="-1307.77" as="targetPoint" />
          </mxGeometry>
        </mxCell>
        <mxCell id="onG2acxlvetChBkqUA75-270" value="strip" style="rounded=0;whiteSpace=wrap;html=1;fillColor=#FFFFFF;fontFamily=Verdana;align=center;fontSize=11;" parent="1" vertex="1">
          <mxGeometry x="2819.26" y="-1322.77" width="105.5" height="30" as="geometry" />
        </mxCell>
        <mxCell id="onG2acxlvetChBkqUA75-271" value="Type" style="rounded=0;whiteSpace=wrap;html=1;fillColor=#FFFFFF;fontFamily=Verdana;align=center;fontSize=11;" parent="1" vertex="1">
          <mxGeometry x="2828.13" y="-1466.54" width="79.5" height="32.5" as="geometry" />
        </mxCell>
        <mxCell id="onG2acxlvetChBkqUA75-272" value="&lt;meta charset=&quot;utf-8&quot; style=&quot;font-size: 11px;&quot;&gt;&lt;span style=&quot;color: rgb(0, 0, 0); font-family: Helvetica; font-size: 11px; font-style: normal; font-variant-ligatures: normal; font-variant-caps: normal; font-weight: 400; letter-spacing: normal; orphans: 2; text-align: left; text-indent: 0px; text-transform: none; widows: 2; word-spacing: 0px; -webkit-text-stroke-width: 0px; background-color: rgb(248, 249, 250); text-decoration-thickness: initial; text-decoration-style: initial; text-decoration-color: initial; float: none; display: inline !important;&quot;&gt;由于.i和.s文件都是字符串文件, cat命令可读, 所以没什么好说的, 只要按照ascii或指定的编码放入磁盘即可&lt;/span&gt;" style="text;whiteSpace=wrap;html=1;fontSize=11;" parent="1" vertex="1">
          <mxGeometry x="2949.5" y="-2107.25" width="330" height="41.5" as="geometry" />
        </mxCell>
        <mxCell id="onG2acxlvetChBkqUA75-273" value="malloc" style="rounded=0;whiteSpace=wrap;html=1;fillColor=#FFFFFF;fontFamily=Verdana;align=center;fontSize=11;" parent="1" vertex="1">
          <mxGeometry x="3037.57" y="-1164.7099999999998" width="109.12" height="28.12" as="geometry" />
        </mxCell>
        <mxCell id="onG2acxlvetChBkqUA75-274" style="edgeStyle=orthogonalEdgeStyle;curved=1;rounded=0;orthogonalLoop=1;jettySize=auto;html=1;entryX=0;entryY=0.5;entryDx=0;entryDy=0;fontColor=#FF8000;fontSize=11;" parent="1" source="onG2acxlvetChBkqUA75-277" target="onG2acxlvetChBkqUA75-273" edge="1">
          <mxGeometry relative="1" as="geometry" />
        </mxCell>
        <mxCell id="onG2acxlvetChBkqUA75-275" style="edgeStyle=orthogonalEdgeStyle;curved=1;rounded=0;orthogonalLoop=1;jettySize=auto;html=1;entryX=0;entryY=0.5;entryDx=0;entryDy=0;fontColor=#FF8000;fontSize=11;" parent="1" source="onG2acxlvetChBkqUA75-277" target="onG2acxlvetChBkqUA75-278" edge="1">
          <mxGeometry relative="1" as="geometry" />
        </mxCell>
        <mxCell id="onG2acxlvetChBkqUA75-276" style="edgeStyle=orthogonalEdgeStyle;curved=1;rounded=0;orthogonalLoop=1;jettySize=auto;html=1;entryX=0;entryY=0.5;entryDx=0;entryDy=0;fontSize=11;fontColor=#000000;" parent="1" source="onG2acxlvetChBkqUA75-277" target="onG2acxlvetChBkqUA75-307" edge="1">
          <mxGeometry relative="1" as="geometry" />
        </mxCell>
        <mxCell id="onG2acxlvetChBkqUA75-277" value="内存管理" style="rounded=0;whiteSpace=wrap;html=1;fillColor=#FFFFFF;fontFamily=Verdana;align=center;fontSize=11;" parent="1" vertex="1">
          <mxGeometry x="2890.38" y="-1130.4099999999999" width="105.37" height="33.12" as="geometry" />
        </mxCell>
        <mxCell id="onG2acxlvetChBkqUA75-278" value="free" style="rounded=0;whiteSpace=wrap;html=1;fillColor=#FFFFFF;fontFamily=Verdana;align=center;fontSize=11;" parent="1" vertex="1">
          <mxGeometry x="3037.57" y="-1126.29" width="109.12" height="24.87" as="geometry" />
        </mxCell>
        <mxCell id="gwgHYUVU3DYSM8FIDgpD-2" style="edgeStyle=orthogonalEdgeStyle;rounded=0;orthogonalLoop=1;jettySize=auto;html=1;curved=1;" parent="1" source="onG2acxlvetChBkqUA75-279" target="gwgHYUVU3DYSM8FIDgpD-1" edge="1">
          <mxGeometry relative="1" as="geometry" />
        </mxCell>
        <mxCell id="onG2acxlvetChBkqUA75-279" value="1. mmap分配 (适合大内存)&lt;br style=&quot;font-size: 11px;&quot;&gt;2. 使用edata指针 (适合小内存)" style="text;html=1;strokeColor=none;fillColor=none;align=left;verticalAlign=middle;whiteSpace=wrap;rounded=0;labelBackgroundColor=none;fontSize=11;fontColor=#000000;" parent="1" vertex="1">
          <mxGeometry x="3159.63" y="-1168.9999999999998" width="185.25" height="36.71" as="geometry" />
        </mxCell>
        <mxCell id="onG2acxlvetChBkqUA75-280" value="library interpositioning" style="rounded=0;whiteSpace=wrap;html=1;fillColor=#FFFFFF;fontFamily=Verdana;align=center;fontSize=11;" parent="1" vertex="1">
          <mxGeometry x="3330.5" y="-1716" width="105.5" height="30" as="geometry" />
        </mxCell>
        <mxCell id="onG2acxlvetChBkqUA75-281" style="edgeStyle=orthogonalEdgeStyle;curved=1;rounded=0;orthogonalLoop=1;jettySize=auto;html=1;entryX=0;entryY=0.5;entryDx=0;entryDy=0;fontSize=11;fontColor=#000000;" parent="1" source="onG2acxlvetChBkqUA75-284" target="onG2acxlvetChBkqUA75-293" edge="1">
          <mxGeometry relative="1" as="geometry" />
        </mxCell>
        <mxCell id="onG2acxlvetChBkqUA75-282" style="edgeStyle=orthogonalEdgeStyle;curved=1;rounded=0;orthogonalLoop=1;jettySize=auto;html=1;entryX=0;entryY=0.5;entryDx=0;entryDy=0;fontSize=11;fontColor=#000000;" parent="1" source="onG2acxlvetChBkqUA75-284" target="onG2acxlvetChBkqUA75-285" edge="1">
          <mxGeometry relative="1" as="geometry" />
        </mxCell>
        <mxCell id="onG2acxlvetChBkqUA75-283" style="edgeStyle=orthogonalEdgeStyle;curved=1;rounded=0;orthogonalLoop=1;jettySize=auto;html=1;entryX=0;entryY=0.5;entryDx=0;entryDy=0;fontSize=11;fontColor=#000000;" parent="1" source="onG2acxlvetChBkqUA75-284" target="onG2acxlvetChBkqUA75-169" edge="1">
          <mxGeometry relative="1" as="geometry" />
        </mxCell>
        <mxCell id="onG2acxlvetChBkqUA75-284" value="指针" style="rounded=0;whiteSpace=wrap;html=1;fillColor=#FFFFFF;fontFamily=Verdana;align=center;fontSize=11;" parent="1" vertex="1">
          <mxGeometry x="2889.5" y="-2371" width="75.5" height="20" as="geometry" />
        </mxCell>
        <mxCell id="onG2acxlvetChBkqUA75-285" value="指针就是一个地址, 这个地址里可以存指令或者数据; 指针类型告诉编译器如何解释指向的内存中的数据&lt;br style=&quot;font-size: 11px;&quot;&gt;可以任意进行指针的类型转换, 无非就是从这个地址开始取多宽的内存, 只要用的时候类型转对了即可" style="text;html=1;strokeColor=none;fillColor=none;align=left;verticalAlign=middle;whiteSpace=wrap;rounded=0;fontFamily=Verdana;fontSize=11;fontColor=#000000;" parent="1" vertex="1">
          <mxGeometry x="3009.25" y="-2390" width="451.75" height="58" as="geometry" />
        </mxCell>
        <mxCell id="onG2acxlvetChBkqUA75-286" value="基础类型指针" style="rounded=0;whiteSpace=wrap;html=1;fillColor=#FFFFFF;fontFamily=Verdana;align=center;fontSize=11;" parent="1" vertex="1">
          <mxGeometry x="3107.75" y="-2320" width="75.5" height="20" as="geometry" />
        </mxCell>
        <mxCell id="onG2acxlvetChBkqUA75-287" value="函数指针" style="rounded=0;whiteSpace=wrap;html=1;fillColor=#FFFFFF;fontFamily=Verdana;align=center;fontSize=11;" parent="1" vertex="1">
          <mxGeometry x="3107.75" y="-2226.06" width="75.5" height="20" as="geometry" />
        </mxCell>
        <mxCell id="onG2acxlvetChBkqUA75-288" style="edgeStyle=orthogonalEdgeStyle;curved=1;rounded=0;orthogonalLoop=1;jettySize=auto;html=1;entryX=0;entryY=0.5;entryDx=0;entryDy=0;fontSize=11;fontColor=#000000;" parent="1" target="onG2acxlvetChBkqUA75-286" edge="1">
          <mxGeometry relative="1" as="geometry">
            <mxPoint x="3064" y="-2266.1666666666665" as="sourcePoint" />
          </mxGeometry>
        </mxCell>
        <mxCell id="onG2acxlvetChBkqUA75-289" style="edgeStyle=orthogonalEdgeStyle;curved=1;rounded=0;orthogonalLoop=1;jettySize=auto;html=1;entryX=0;entryY=0.5;entryDx=0;entryDy=0;fontSize=11;fontColor=#000000;" parent="1" target="onG2acxlvetChBkqUA75-287" edge="1">
          <mxGeometry relative="1" as="geometry">
            <mxPoint x="3064" y="-2266.1666666666665" as="sourcePoint" />
          </mxGeometry>
        </mxCell>
        <mxCell id="onG2acxlvetChBkqUA75-290" style="edgeStyle=orthogonalEdgeStyle;curved=1;rounded=0;orthogonalLoop=1;jettySize=auto;html=1;entryX=0;entryY=0.5;entryDx=0;entryDy=0;fontSize=11;fontColor=#000000;" parent="1" source="onG2acxlvetChBkqUA75-293" target="onG2acxlvetChBkqUA75-296" edge="1">
          <mxGeometry relative="1" as="geometry" />
        </mxCell>
        <mxCell id="onG2acxlvetChBkqUA75-291" style="edgeStyle=orthogonalEdgeStyle;curved=1;rounded=0;orthogonalLoop=1;jettySize=auto;html=1;entryX=0;entryY=0.5;entryDx=0;entryDy=0;fontSize=11;fontColor=#000000;" parent="1" source="onG2acxlvetChBkqUA75-293" target="onG2acxlvetChBkqUA75-297" edge="1">
          <mxGeometry relative="1" as="geometry" />
        </mxCell>
        <mxCell id="onG2acxlvetChBkqUA75-292" style="edgeStyle=orthogonalEdgeStyle;curved=1;rounded=0;orthogonalLoop=1;jettySize=auto;html=1;entryX=0;entryY=0.5;entryDx=0;entryDy=0;fontSize=11;fontColor=#000000;" parent="1" source="onG2acxlvetChBkqUA75-293" target="onG2acxlvetChBkqUA75-304" edge="1">
          <mxGeometry relative="1" as="geometry" />
        </mxCell>
        <mxCell id="onG2acxlvetChBkqUA75-293" value="类型" style="rounded=0;whiteSpace=wrap;html=1;fillColor=#FFFFFF;fontFamily=Verdana;align=center;fontSize=11;" parent="1" vertex="1">
          <mxGeometry x="3009.25" y="-2275.06" width="53.75" height="18" as="geometry" />
        </mxCell>
        <mxCell id="onG2acxlvetChBkqUA75-294" value="返回值 + 指针名 + 入参&lt;br style=&quot;font-size: 11px;&quot;&gt;void(*oom_handler)(size_t)" style="text;html=1;strokeColor=none;fillColor=none;align=left;verticalAlign=middle;whiteSpace=wrap;rounded=0;fontFamily=Verdana;fontSize=11;fontColor=#000000;" parent="1" vertex="1">
          <mxGeometry x="3196" y="-2230" width="176" height="27.88" as="geometry" />
        </mxCell>
        <mxCell id="onG2acxlvetChBkqUA75-295" value="int*, char*, etc." style="text;html=1;strokeColor=none;fillColor=none;align=left;verticalAlign=middle;whiteSpace=wrap;rounded=0;fontFamily=Verdana;fontSize=11;fontColor=#000000;" parent="1" vertex="1">
          <mxGeometry x="3196" y="-2320" width="96" height="21.97" as="geometry" />
        </mxCell>
        <mxCell id="onG2acxlvetChBkqUA75-296" value="数组" style="rounded=0;whiteSpace=wrap;html=1;fillColor=#FFFFFF;fontFamily=Verdana;align=center;fontSize=11;" parent="1" vertex="1">
          <mxGeometry x="3107.75" y="-2288" width="75.5" height="20" as="geometry" />
        </mxCell>
        <mxCell id="onG2acxlvetChBkqUA75-297" value="struct" style="rounded=0;whiteSpace=wrap;html=1;fillColor=#FFFFFF;fontFamily=Verdana;align=center;fontSize=11;" parent="1" vertex="1">
          <mxGeometry x="3107.75" y="-2257.06" width="75.5" height="20" as="geometry" />
        </mxCell>
        <mxCell id="eivDgg5kd7hcaZVspzo9-2" value="" style="edgeStyle=orthogonalEdgeStyle;rounded=0;orthogonalLoop=1;jettySize=auto;html=1;fontSize=11;" parent="1" source="onG2acxlvetChBkqUA75-298" target="eivDgg5kd7hcaZVspzo9-1" edge="1">
          <mxGeometry relative="1" as="geometry" />
        </mxCell>
        <mxCell id="onG2acxlvetChBkqUA75-298" value="指针的妙用: (接口)解耦合" style="text;html=1;strokeColor=none;fillColor=none;align=center;verticalAlign=middle;whiteSpace=wrap;rounded=0;fontSize=11;fontColor=#FF3333;fontStyle=1" parent="1" vertex="1">
          <mxGeometry x="3420" y="-2325.02" width="111.5" height="32" as="geometry" />
        </mxCell>
        <mxCell id="onG2acxlvetChBkqUA75-299" value="模块1" style="rounded=0;whiteSpace=wrap;html=1;fontSize=11;fillColor=#CCCCFF;" parent="1" vertex="1">
          <mxGeometry x="3558.63" y="-2329.5" width="101.37" height="39.5" as="geometry" />
        </mxCell>
        <mxCell id="onG2acxlvetChBkqUA75-300" value="模块2" style="rounded=0;whiteSpace=wrap;html=1;fontSize=11;fillColor=#CCCCFF;" parent="1" vertex="1">
          <mxGeometry x="3561.5" y="-2250.06" width="98.5" height="34" as="geometry" />
        </mxCell>
        <mxCell id="wOEEzHMv0cdHn1Ycu4iU-1" style="edgeStyle=orthogonalEdgeStyle;rounded=0;orthogonalLoop=1;jettySize=auto;html=1;entryX=0.5;entryY=0;entryDx=0;entryDy=0;curved=1;" parent="1" source="onG2acxlvetChBkqUA75-302" target="onG2acxlvetChBkqUA75-300" edge="1">
          <mxGeometry relative="1" as="geometry" />
        </mxCell>
        <mxCell id="onG2acxlvetChBkqUA75-302" value="" style="rounded=0;whiteSpace=wrap;html=1;fontSize=11;fillColor=#FFFFCC;fontColor=#ffffff;strokeColor=#2D7600;" parent="1" vertex="1">
          <mxGeometry x="3631" y="-2304" width="29" height="14" as="geometry" />
        </mxCell>
        <mxCell id="onG2acxlvetChBkqUA75-303" value="不直接进行函数调用, 而是通过定义函数指针, 在运行时才决定这个指针具体指向哪个地址" style="text;html=1;strokeColor=none;fillColor=none;align=center;verticalAlign=middle;whiteSpace=wrap;rounded=0;fontSize=11;fontColor=#000000;" parent="1" vertex="1">
          <mxGeometry x="3693" y="-2332" width="257" height="42" as="geometry" />
        </mxCell>
        <mxCell id="onG2acxlvetChBkqUA75-304" value="void*" style="rounded=0;whiteSpace=wrap;html=1;fillColor=#FFFFFF;fontFamily=Verdana;align=center;fontSize=11;" parent="1" vertex="1">
          <mxGeometry x="3107.75" y="-2190" width="75.5" height="20" as="geometry" />
        </mxCell>
        <mxCell id="onG2acxlvetChBkqUA75-305" value="int main() {&lt;br style=&quot;font-size: 11px;&quot;&gt;&lt;span style=&quot;white-space: pre; font-size: 11px;&quot;&gt; char* str = &quot;abc\0def&quot;&lt;/span&gt;;&lt;br style=&quot;font-size: 11px;&quot;&gt;&amp;nbsp;printf(&quot;%s\n&quot;, str);&lt;br style=&quot;font-size: 11px;&quot;&gt;}" style="text;html=1;strokeColor=none;fillColor=none;align=left;verticalAlign=middle;whiteSpace=wrap;rounded=0;fontFamily=Verdana;fontSize=11;fontColor=#000000;" parent="1" vertex="1">
          <mxGeometry x="3457.28" y="-2623.9100000000003" width="152.07" height="54.44" as="geometry" />
        </mxCell>
        <mxCell id="onG2acxlvetChBkqUA75-306" value="printf就是通过找到字符串结尾符来进行输出" style="text;html=1;strokeColor=none;fillColor=none;align=left;verticalAlign=middle;whiteSpace=wrap;rounded=0;fontFamily=Verdana;fontSize=11;fontColor=#000000;" parent="1" vertex="1">
          <mxGeometry x="3619" y="-2608.91" width="201" height="24.44" as="geometry" />
        </mxCell>
        <mxCell id="onG2acxlvetChBkqUA75-307" value="malloc, calloc, realloc" style="text;html=1;strokeColor=none;fillColor=none;align=center;verticalAlign=middle;whiteSpace=wrap;rounded=0;labelBackgroundColor=none;fontSize=11;fontColor=#000000;" parent="1" vertex="1">
          <mxGeometry x="3041.1400000000003" y="-1090.04" width="138.74" height="27.33" as="geometry" />
        </mxCell>
        <mxCell id="qvjmshA6DQtf6-69wwgu-2" value="" style="edgeStyle=orthogonalEdgeStyle;curved=1;rounded=0;orthogonalLoop=1;jettySize=auto;html=1;fontColor=#FF8000;fontSize=11;" parent="1" source="qvjmshA6DQtf6-69wwgu-3" target="qvjmshA6DQtf6-69wwgu-11" edge="1">
          <mxGeometry relative="1" as="geometry" />
        </mxCell>
        <mxCell id="qvjmshA6DQtf6-69wwgu-3" value="malloc.h 函数原型" style="rounded=0;whiteSpace=wrap;html=1;fillColor=#FFFFFF;fontFamily=Verdana;align=center;fontSize=11;" parent="1" vertex="1">
          <mxGeometry x="3030.4100000000008" y="-750" width="132.12" height="33.12" as="geometry" />
        </mxCell>
        <mxCell id="qvjmshA6DQtf6-69wwgu-4" value="内存管理算法1" style="rounded=0;whiteSpace=wrap;html=1;fillColor=#FFFFFF;fontFamily=Verdana;align=center;fontSize=11;" parent="1" vertex="1">
          <mxGeometry x="2869.2200000000003" y="-572.8199999999999" width="132.12" height="33.12" as="geometry" />
        </mxCell>
        <mxCell id="qvjmshA6DQtf6-69wwgu-5" value="内存管理算法2" style="rounded=0;whiteSpace=wrap;html=1;fillColor=#FFFFFF;fontFamily=Verdana;align=center;fontSize=11;" parent="1" vertex="1">
          <mxGeometry x="3030.4100000000008" y="-572.8199999999999" width="132.12" height="33.12" as="geometry" />
        </mxCell>
        <mxCell id="qvjmshA6DQtf6-69wwgu-6" value="内存管理算法3" style="rounded=0;whiteSpace=wrap;html=1;fillColor=#FFFFFF;fontFamily=Verdana;align=center;fontSize=11;" parent="1" vertex="1">
          <mxGeometry x="3196.960000000001" y="-572.8199999999999" width="132.12" height="33.12" as="geometry" />
        </mxCell>
        <mxCell id="qvjmshA6DQtf6-69wwgu-7" value="LD_PRELOAD" style="text;html=1;strokeColor=none;fillColor=none;align=center;verticalAlign=middle;whiteSpace=wrap;rounded=0;labelBackgroundColor=none;fontSize=11;fontColor=#000000;" parent="1" vertex="1">
          <mxGeometry x="3019.6600000000008" y="-620.78" width="153.62" height="27.96" as="geometry" />
        </mxCell>
        <mxCell id="qvjmshA6DQtf6-69wwgu-8" style="edgeStyle=orthogonalEdgeStyle;curved=1;rounded=0;orthogonalLoop=1;jettySize=auto;html=1;entryX=0.5;entryY=0;entryDx=0;entryDy=0;fontColor=#FF8000;fontSize=11;" parent="1" source="qvjmshA6DQtf6-69wwgu-11" target="qvjmshA6DQtf6-69wwgu-5" edge="1">
          <mxGeometry relative="1" as="geometry" />
        </mxCell>
        <mxCell id="qvjmshA6DQtf6-69wwgu-9" style="edgeStyle=orthogonalEdgeStyle;curved=1;rounded=0;orthogonalLoop=1;jettySize=auto;html=1;entryX=0.5;entryY=0;entryDx=0;entryDy=0;fontColor=#FF8000;exitX=0.5;exitY=1;exitDx=0;exitDy=0;fontSize=11;" parent="1" source="qvjmshA6DQtf6-69wwgu-11" target="qvjmshA6DQtf6-69wwgu-6" edge="1">
          <mxGeometry relative="1" as="geometry" />
        </mxCell>
        <mxCell id="qvjmshA6DQtf6-69wwgu-10" style="edgeStyle=orthogonalEdgeStyle;curved=1;rounded=0;orthogonalLoop=1;jettySize=auto;html=1;entryX=0.5;entryY=0;entryDx=0;entryDy=0;fontColor=#FF8000;exitX=0.5;exitY=1;exitDx=0;exitDy=0;fontSize=11;" parent="1" source="qvjmshA6DQtf6-69wwgu-11" target="qvjmshA6DQtf6-69wwgu-4" edge="1">
          <mxGeometry relative="1" as="geometry" />
        </mxCell>
        <mxCell id="qvjmshA6DQtf6-69wwgu-11" value="动态链接器" style="rounded=0;whiteSpace=wrap;html=1;fillColor=#FF6666;fontFamily=Verdana;align=center;fontSize=11;" parent="1" vertex="1">
          <mxGeometry x="3030.4100000000008" y="-685.94" width="132.12" height="28.12" as="geometry" />
        </mxCell>
        <mxCell id="qvjmshA6DQtf6-69wwgu-12" value=".dynsym &lt;br style=&quot;font-size: 11px;&quot;&gt;动态链接符号 malloc" style="text;html=1;strokeColor=none;fillColor=none;align=center;verticalAlign=middle;whiteSpace=wrap;rounded=0;labelBackgroundColor=none;fontSize=11;fontColor=#000000;" parent="1" vertex="1">
          <mxGeometry x="3018.5300000000007" y="-497.81999999999994" width="150.5" height="40" as="geometry" />
        </mxCell>
        <mxCell id="qvjmshA6DQtf6-69wwgu-13" value="Symbol table &#39;.dynsym&#39; contains 8 entries:&lt;br style=&quot;font-size: 11px;&quot;&gt;&amp;nbsp; &amp;nbsp;Num:&amp;nbsp; &amp;nbsp; Value&amp;nbsp; &amp;nbsp; &amp;nbsp; &amp;nbsp; &amp;nbsp; &amp;nbsp; &amp;nbsp; &amp;nbsp; Size Type&amp;nbsp; &amp;nbsp; &amp;nbsp; &amp;nbsp; &amp;nbsp; Bind&amp;nbsp; &amp;nbsp; &amp;nbsp; &amp;nbsp;Vis&amp;nbsp; &amp;nbsp; &amp;nbsp; &amp;nbsp; &amp;nbsp; &amp;nbsp; &amp;nbsp;Ndx&amp;nbsp; &amp;nbsp;Name&lt;br style=&quot;font-size: 11px;&quot;&gt;&amp;nbsp; &amp;nbsp; &amp;nbsp;0: 0000000000000000&amp;nbsp; &amp;nbsp; &amp;nbsp;0 NOTYPE&amp;nbsp; LOCAL&amp;nbsp; DEFAULT&amp;nbsp; UND&lt;br style=&quot;font-size: 11px;&quot;&gt;&amp;nbsp; &amp;nbsp; &amp;nbsp;1: 0000000000000000&amp;nbsp; &amp;nbsp; &amp;nbsp;0 NOTYPE&amp;nbsp; WEAK&amp;nbsp; &amp;nbsp;DEFAULT&amp;nbsp; UND _ITM_deregisterTMCloneTab&lt;br style=&quot;font-size: 11px;&quot;&gt;&amp;nbsp; &amp;nbsp; &amp;nbsp;2: 0000000000000000&amp;nbsp; &amp;nbsp; &amp;nbsp;0 FUNC&amp;nbsp; &amp;nbsp; GLOBAL DEFAULT&amp;nbsp; UND puts@GLIBC_2.2.5 (2)&lt;br style=&quot;font-size: 11px;&quot;&gt;&amp;nbsp; &amp;nbsp; &amp;nbsp;3: 0000000000000000&amp;nbsp; &amp;nbsp; &amp;nbsp;0 FUNC&amp;nbsp; &amp;nbsp; GLOBAL DEFAULT&amp;nbsp; UND __libc_start_main@GLIBC_2.2.5 (2)&lt;br style=&quot;font-size: 11px;&quot;&gt;&amp;nbsp; &amp;nbsp; &amp;nbsp;4: 0000000000000000&amp;nbsp; &amp;nbsp; &amp;nbsp;0 NOTYPE&amp;nbsp; WEAK&amp;nbsp; &amp;nbsp;DEFAULT&amp;nbsp; UND __gmon_start__&lt;br style=&quot;font-size: 11px;&quot;&gt;&amp;nbsp; &amp;nbsp; &amp;nbsp;5: 0000000000000000&amp;nbsp; &amp;nbsp; &amp;nbsp;0 FUNC&amp;nbsp; &amp;nbsp; GLOBAL DEFAULT&amp;nbsp; UND malloc@GLIBC_2.2.5 (2)&lt;br style=&quot;font-size: 11px;&quot;&gt;&amp;nbsp; &amp;nbsp; &amp;nbsp;6: 0000000000000000&amp;nbsp; &amp;nbsp; &amp;nbsp;0 NOTYPE&amp;nbsp; WEAK&amp;nbsp; &amp;nbsp;DEFAULT&amp;nbsp; UND _ITM_registerTMCloneTable&lt;br style=&quot;font-size: 11px;&quot;&gt;&amp;nbsp; &amp;nbsp; &amp;nbsp;7: 0000000000000000&amp;nbsp; &amp;nbsp; &amp;nbsp;0 FUNC&amp;nbsp; &amp;nbsp; WEAK&amp;nbsp; &amp;nbsp;DEFAULT&amp;nbsp; UND __cxa_finalize@GLIBC_2.2.5 (2)" style="text;html=1;strokeColor=none;fillColor=none;align=left;verticalAlign=middle;whiteSpace=wrap;rounded=0;fontColor=#000000;fontSize=11;" parent="1" vertex="1">
          <mxGeometry x="3192.2799999999997" y="-522.8199999999999" width="566.72" height="172.82" as="geometry" />
        </mxCell>
        <UserObject label="e.g. redisObject" link="https://app.diagrams.net/?mode=github#Hhaoboliu66%2FDiagram%2Fmain%2FRedis.drawio" id="eivDgg5kd7hcaZVspzo9-1">
          <mxCell style="text;html=1;strokeColor=#d6b656;fillColor=#fff2cc;align=center;verticalAlign=middle;whiteSpace=wrap;rounded=0;fontSize=11;fontStyle=1" parent="1" vertex="1">
            <mxGeometry x="3420" y="-2248" width="111.5" height="32" as="geometry" />
          </mxCell>
        </UserObject>
        <mxCell id="ySqF0t0O-3qDelf5BsEI-3" style="edgeStyle=orthogonalEdgeStyle;curved=1;rounded=0;orthogonalLoop=1;jettySize=auto;html=1;entryX=0;entryY=0.5;entryDx=0;entryDy=0;fontColor=#000000;fontSize=11;" parent="1" source="ySqF0t0O-3qDelf5BsEI-4" target="ySqF0t0O-3qDelf5BsEI-6" edge="1">
          <mxGeometry relative="1" as="geometry" />
        </mxCell>
        <mxCell id="ySqF0t0O-3qDelf5BsEI-4" value="ELF executable" style="rounded=0;whiteSpace=wrap;html=1;fontSize=11;" parent="1" vertex="1">
          <mxGeometry x="4412.5" y="-1645.7" width="120" height="39.15" as="geometry" />
        </mxCell>
        <mxCell id="ySqF0t0O-3qDelf5BsEI-5" value="" style="edgeStyle=orthogonalEdgeStyle;curved=1;rounded=0;orthogonalLoop=1;jettySize=auto;html=1;fontColor=#000000;fontSize=11;" parent="1" source="ySqF0t0O-3qDelf5BsEI-6" target="ySqF0t0O-3qDelf5BsEI-7" edge="1">
          <mxGeometry relative="1" as="geometry" />
        </mxCell>
        <mxCell id="ySqF0t0O-3qDelf5BsEI-6" value="ELF Header" style="rounded=0;whiteSpace=wrap;html=1;fontSize=11;" parent="1" vertex="1">
          <mxGeometry x="4585.25" y="-1642.82" width="120.5" height="34.27" as="geometry" />
        </mxCell>
        <mxCell id="ySqF0t0O-3qDelf5BsEI-7" value="Program Header&lt;br style=&quot;font-size: 11px;&quot;&gt;(Segment信息)" style="rounded=0;whiteSpace=wrap;html=1;fontSize=11;" parent="1" vertex="1">
          <mxGeometry x="4585.25" y="-1566.55" width="120.5" height="45" as="geometry" />
        </mxCell>
        <mxCell id="ySqF0t0O-3qDelf5BsEI-8" value="_start" style="text;html=1;strokeColor=none;fillColor=none;align=center;verticalAlign=middle;whiteSpace=wrap;rounded=0;fontSize=11;fontColor=#000000;" parent="1" vertex="1">
          <mxGeometry x="4412.5" y="-1492.9199999999998" width="70" height="30" as="geometry" />
        </mxCell>
        <mxCell id="ySqF0t0O-3qDelf5BsEI-9" value="__libc_start_main@plt" style="text;html=1;strokeColor=none;fillColor=none;align=center;verticalAlign=middle;whiteSpace=wrap;rounded=0;fontSize=11;fontColor=#000000;" parent="1" vertex="1">
          <mxGeometry x="4532.5" y="-1493.9199999999998" width="160" height="31" as="geometry" />
        </mxCell>
        <mxCell id="5MU1WVkMyFggOG_La4Lw-1" value="ELF Header" style="rounded=0;whiteSpace=wrap;html=1;fontSize=11;" parent="1" vertex="1">
          <mxGeometry x="4832.5" y="-1576.8600000000001" width="90" height="34.27" as="geometry" />
        </mxCell>
        <mxCell id="5MU1WVkMyFggOG_La4Lw-2" value="Program Header Table" style="rounded=0;whiteSpace=wrap;html=1;fontSize=11;" parent="1" vertex="1">
          <mxGeometry x="5102.5" y="-1631.8700000000001" width="120.5" height="36" as="geometry" />
        </mxCell>
        <mxCell id="5MU1WVkMyFggOG_La4Lw-4" value="Section Header Table" style="rounded=0;whiteSpace=wrap;html=1;fontSize=11;" parent="1" vertex="1">
          <mxGeometry x="5102.5" y="-1509.5900000000001" width="120.5" height="36" as="geometry" />
        </mxCell>
        <mxCell id="5MU1WVkMyFggOG_La4Lw-6" style="edgeStyle=orthogonalEdgeStyle;rounded=0;orthogonalLoop=1;jettySize=auto;html=1;curved=1;" parent="1" source="5MU1WVkMyFggOG_La4Lw-5" target="5MU1WVkMyFggOG_La4Lw-2" edge="1">
          <mxGeometry relative="1" as="geometry" />
        </mxCell>
        <mxCell id="5MU1WVkMyFggOG_La4Lw-5" value="e_phoff" style="text;html=1;strokeColor=none;fillColor=none;align=center;verticalAlign=middle;whiteSpace=wrap;rounded=0;" parent="1" vertex="1">
          <mxGeometry x="4922.5" y="-1595.8700000000001" width="60" height="30" as="geometry" />
        </mxCell>
        <mxCell id="5MU1WVkMyFggOG_La4Lw-8" style="edgeStyle=orthogonalEdgeStyle;shape=connector;curved=1;rounded=0;orthogonalLoop=1;jettySize=auto;html=1;entryX=0;entryY=0.5;entryDx=0;entryDy=0;labelBackgroundColor=default;strokeColor=default;fontFamily=Helvetica;fontSize=11;fontColor=default;endArrow=classic;" parent="1" source="5MU1WVkMyFggOG_La4Lw-7" target="5MU1WVkMyFggOG_La4Lw-4" edge="1">
          <mxGeometry relative="1" as="geometry" />
        </mxCell>
        <mxCell id="5MU1WVkMyFggOG_La4Lw-7" value="e_shoff" style="text;html=1;strokeColor=none;fillColor=none;align=center;verticalAlign=middle;whiteSpace=wrap;rounded=0;" parent="1" vertex="1">
          <mxGeometry x="4922.5" y="-1558.66" width="60" height="30" as="geometry" />
        </mxCell>
        <UserObject label="mmap" link="https://app.diagrams.net/?mode=github#Hhaoboliu66%2FDiagram%2Fmain%2FIO.drawio" id="gwgHYUVU3DYSM8FIDgpD-1">
          <mxCell style="rounded=0;whiteSpace=wrap;html=1;fillColor=#FFFFFF;fontFamily=Verdana;align=center;fontSize=11;" parent="1" vertex="1">
            <mxGeometry x="3400" y="-1179.9999999999998" width="109.12" height="28.12" as="geometry" />
          </mxCell>
        </UserObject>
      </root>
    </mxGraphModel>
  </diagram>
</mxfile>
